<svg width="20" height="20" viewBox="0 0 1 1" fill="none" xmlns="http://www.w3.org/2000/svg">
<path d="M0.40625 0.68719V0.906252C0.40625 0.91454 0.402958 0.922489 0.397097 0.92835C0.391237 0.93421 0.383288 0.937502 0.375 0.937502H0.125C0.116712 0.937502 0.108763 0.93421 0.102903 0.92835C0.0970425 0.922489 0.09375 0.91454 0.09375 0.906252V0.468752C0.0937427 0.464646 0.0945448 0.460578 0.0961106 0.456782C0.0976763 0.452985 0.0999749 0.449535 0.102875 0.446627L0.477875 0.0716275C0.480778 0.0687173 0.484226 0.0664083 0.488023 0.0648329C0.49182 0.0632575 0.49589 0.0624466 0.5 0.0624466C0.504111 0.0624466 0.508181 0.0632575 0.511977 0.0648329C0.515774 0.0664083 0.519222 0.0687173 0.522125 0.0716275L0.897125 0.446627C0.900025 0.449535 0.902324 0.452985 0.90389 0.456782C0.905455 0.460578 0.906257 0.464646 0.90625 0.468752V0.906252C0.90625 0.91454 0.902958 0.922489 0.897097 0.92835C0.891237 0.93421 0.883288 0.937502 0.875 0.937502H0.625C0.616712 0.937502 0.608763 0.93421 0.602903 0.92835C0.597042 0.922489 0.59375 0.91454 0.59375 0.906252V0.687502C0.59375 0.671877 0.578125 0.656252 0.5625 0.656252H0.4375C0.421875 0.656252 0.40625 0.671877 0.40625 0.68719Z" fill="white"/>
</svg>
