<svg data-v-fde0c5aa="" xmlns="http://www.w3.org/2000/svg" viewBox="0 0 300 300" class="iconLeft"><!----><defs data-v-fde0c5aa=""><!----></defs><rect data-v-fde0c5aa="" fill="#D5D7F1" x="0" y="0" width="300px" height="300px" class="logo-background-square"></rect><defs data-v-fde0c5aa=""><!----></defs><g data-v-fde0c5aa="" id="3d372af6-820f-4fdf-8abd-f5d7d24451f7" fill="#0F104F" transform="matrix(3.0749660724881993,0,0,3.0749660724881993,120.76554420684703,119.66545893244971)"><path d="M8.41 11.90L8.41 11.90L8.41 11.90Q8.62 12.40 8.62 12.63L8.62 12.63L8.62 12.63Q8.62 13.16 7.76 13.52L7.76 13.52L7.76 13.52Q7.31 13.72 7.04 13.72L7.04 13.72L7.04 13.72Q6.76 13.72 6.59 13.59L6.59 13.59L6.59 13.59Q6.41 13.45 6.33 13.31L6.33 13.31L6.33 13.31Q6.19 13.05 5.24 10.78L5.24 10.78L4.80 10.81L3.04 10.81L3.04 12.39L3.04 12.39Q3.04 12.71 3.02 12.87L3.02 12.87L3.02 12.87Q3.00 13.03 2.88 13.24L2.88 13.24L2.88 13.24Q2.69 13.62 1.79 13.62L1.79 13.62L1.79 13.62Q0.81 13.62 0.64 13.10L0.64 13.10L0.64 13.10Q0.56 12.87 0.56 12.38L0.56 12.38L0.56 4.61L0.56 4.61Q0.56 4.28 0.58 4.12L0.58 4.12L0.58 4.12Q0.60 3.96 0.71 3.75L0.71 3.75L0.71 3.75Q0.91 3.37 1.81 3.37L1.81 3.37L4.83 3.37L4.83 3.37Q6.06 3.37 7.22 4.27L7.22 4.27L7.22 4.27Q7.78 4.70 8.15 5.45L8.15 5.45L8.15 5.45Q8.51 6.19 8.51 7.10L8.51 7.10L8.51 7.10Q8.51 8.68 7.46 9.70L7.46 9.70L7.46 9.70Q7.77 10.44 8.41 11.90ZM3.04 5.85L3.04 8.33L4.83 8.33L4.83 8.33Q5.24 8.33 5.64 8.02L5.64 8.02L5.64 8.02Q6.05 7.71 6.05 7.10L6.05 7.10L6.05 7.10Q6.05 6.48 5.64 6.17L5.64 6.17L5.64 6.17Q5.24 5.85 4.80 5.85L4.80 5.85L3.04 5.85ZM9.39 12.40L9.39 7.49L9.39 7.49Q9.39 7.17 9.41 7.01L9.41 7.01L9.41 7.01Q9.44 6.85 9.53 6.64L9.53 6.64L9.53 6.64Q9.73 6.27 10.63 6.27L10.63 6.27L10.63 6.27Q11.30 6.27 11.58 6.51L11.58 6.51L11.58 6.51Q11.82 6.71 11.83 7.11L11.83 7.11L11.83 7.11Q11.84 7.25 11.84 7.52L11.84 7.52L11.84 12.42L11.84 12.42Q11.84 12.74 11.82 12.90L11.82 12.90L11.82 12.90Q11.80 13.06 11.69 13.27L11.69 13.27L11.69 13.27Q11.51 13.64 10.61 13.64L10.61 13.64L10.61 13.64Q9.73 13.64 9.53 13.26L9.53 13.26L9.53 13.26Q9.44 13.05 9.41 12.89L9.41 12.89L9.41 12.89Q9.39 12.74 9.39 12.40L9.39 12.40ZM11.70 4.89L11.70 4.89L11.70 4.89Q11.59 5.10 11.33 5.18L11.33 5.18L11.33 5.18Q11.06 5.26 10.62 5.26L10.62 5.26L10.62 5.26Q10.18 5.26 9.91 5.18L9.91 5.18L9.91 5.18Q9.65 5.10 9.54 4.89L9.54 4.89L9.54 4.89Q9.44 4.68 9.41 4.52L9.41 4.52L9.41 4.52Q9.39 4.35 9.39 4.03L9.39 4.03L9.39 4.03Q9.39 3.71 9.41 3.55L9.41 3.55L9.41 3.55Q9.44 3.39 9.53 3.19L9.53 3.19L9.53 3.19Q9.73 2.81 10.63 2.81L10.63 2.81L10.63 2.81Q11.51 2.81 11.69 3.19L11.69 3.19L11.69 3.19Q11.80 3.40 11.82 3.56L11.82 3.56L11.82 3.56Q11.84 3.72 11.84 4.05L11.84 4.05L11.84 4.05Q11.84 4.37 11.82 4.53L11.82 4.53L11.82 4.53Q11.80 4.69 11.70 4.89ZM17.25 8.74L17.25 8.74L16.34 8.68L16.34 10.61L16.34 10.61Q16.34 10.99 16.46 11.16L16.46 11.16L16.46 11.16Q16.58 11.33 16.91 11.33L16.91 11.33L16.91 11.33Q17.23 11.33 17.41 11.35L17.41 11.35L17.41 11.35Q17.58 11.37 17.78 11.48L17.78 11.48L17.78 11.48Q18.10 11.66 18.10 12.42L18.10 12.42L18.10 12.42Q18.10 13.30 17.71 13.50L17.71 13.50L17.71 13.50Q17.50 13.59 17.34 13.62L17.34 13.62L17.34 13.62Q17.18 13.64 16.87 13.64L16.87 13.64L16.87 13.64Q15.41 13.64 14.66 12.98L14.66 12.98L14.66 12.98Q13.90 12.32 13.90 10.75L13.90 10.75L13.90 8.68L13.90 8.68Q13.64 8.72 13.33 8.72L13.33 8.72L13.33 8.72Q13.02 8.72 12.82 8.48L12.82 8.48L12.82 8.48Q12.61 8.25 12.61 7.67L12.61 7.67L12.61 7.67Q12.61 7.10 12.68 6.84L12.68 6.84L12.68 6.84Q12.75 6.58 12.88 6.47L12.88 6.47L12.88 6.47Q13.10 6.29 13.44 6.29L13.44 6.29L13.90 6.34L13.90 4.90L13.90 4.90Q13.90 4.58 13.92 4.42L13.92 4.42L13.92 4.42Q13.94 4.27 14.06 4.09L14.06 4.09L14.06 4.09Q14.24 3.74 15.13 3.74L15.13 3.74L15.13 3.74Q16.09 3.74 16.27 4.26L16.27 4.26L16.27 4.26Q16.34 4.48 16.34 4.97L16.34 4.97L16.34 6.34L16.34 6.34Q16.95 6.29 17.27 6.29L17.27 6.29L17.27 6.29Q17.58 6.29 17.75 6.31L17.75 6.31L17.75 6.31Q17.91 6.33 18.12 6.44L18.12 6.44L18.12 6.44Q18.48 6.62 18.48 7.52L18.48 7.52L18.48 7.52Q18.48 8.40 18.10 8.60L18.10 8.60L18.10 8.60Q17.89 8.69 17.73 8.71L17.73 8.71L17.73 8.71Q17.57 8.74 17.25 8.74ZM23.34 6.29L23.34 6.29L23.34 6.29Q24.74 6.29 25.67 7.35L25.67 7.35L25.67 7.35Q26.60 8.41 26.60 9.95L26.60 9.95L26.60 12.42L26.60 12.42Q26.60 12.74 26.58 12.90L26.58 12.90L26.58 12.90Q26.56 13.06 26.45 13.27L26.45 13.27L26.45 13.27Q26.26 13.64 25.37 13.64L25.37 13.64L25.37 13.64Q24.51 13.64 24.30 13.27L24.30 13.27L24.30 13.27Q24.19 13.06 24.17 12.89L24.17 12.89L24.17 12.89Q24.15 12.73 24.15 12.39L24.15 12.39L24.15 9.94L24.15 9.94Q24.15 9.37 23.83 9.04L23.83 9.04L23.83 9.04Q23.51 8.72 23.01 8.72L23.01 8.72L23.01 8.72Q22.51 8.72 22.13 9.02L22.13 9.02L22.13 9.02Q21.76 9.32 21.70 9.70L21.70 9.70L21.70 12.42L21.70 12.42Q21.70 12.74 21.68 12.90L21.68 12.90L21.68 12.90Q21.66 13.06 21.55 13.27L21.55 13.27L21.55 13.27Q21.36 13.64 20.47 13.64L20.47 13.64L20.47 13.64Q19.59 13.64 19.39 13.26L19.39 13.26L19.39 13.26Q19.29 13.05 19.27 12.89L19.27 12.89L19.27 12.89Q19.25 12.74 19.25 12.40L19.25 12.40L19.25 4.03L19.25 4.03Q19.25 3.71 19.27 3.55L19.27 3.55L19.27 3.55Q19.29 3.39 19.39 3.19L19.39 3.19L19.39 3.19Q19.59 2.81 20.48 2.81L20.48 2.81L20.48 2.81Q21.36 2.81 21.55 3.19L21.55 3.19L21.55 3.19Q21.66 3.40 21.68 3.56L21.68 3.56L21.68 3.56Q21.70 3.72 21.70 4.05L21.70 4.05L21.70 7.14L21.70 7.14Q22.40 6.29 23.34 6.29ZM27.72 12.40L27.72 7.49L27.72 7.49Q27.72 7.17 27.74 7.01L27.74 7.01L27.74 7.01Q27.76 6.85 27.86 6.64L27.86 6.64L27.86 6.64Q28.06 6.27 28.95 6.27L28.95 6.27L28.95 6.27Q29.62 6.27 29.90 6.51L29.90 6.51L29.90 6.51Q30.14 6.71 30.16 7.11L30.16 7.11L30.16 7.11Q30.17 7.25 30.17 7.52L30.17 7.52L30.17 12.42L30.17 12.42Q30.17 12.74 30.15 12.90L30.15 12.90L30.15 12.90Q30.13 13.06 30.02 13.27L30.02 13.27L30.02 13.27Q29.83 13.64 28.94 13.64L28.94 13.64L28.94 13.64Q28.06 13.64 27.86 13.26L27.86 13.26L27.86 13.26Q27.76 13.05 27.74 12.89L27.74 12.89L27.74 12.89Q27.72 12.74 27.72 12.40L27.72 12.40ZM30.02 4.89L30.02 4.89L30.02 4.89Q29.92 5.10 29.65 5.18L29.65 5.18L29.65 5.18Q29.39 5.26 28.95 5.26L28.95 5.26L28.95 5.26Q28.50 5.26 28.24 5.18L28.24 5.18L28.24 5.18Q27.97 5.10 27.87 4.89L27.87 4.89L27.87 4.89Q27.76 4.68 27.74 4.52L27.74 4.52L27.74 4.52Q27.72 4.35 27.72 4.03L27.72 4.03L27.72 4.03Q27.72 3.71 27.74 3.55L27.74 3.55L27.74 3.55Q27.76 3.39 27.86 3.19L27.86 3.19L27.86 3.19Q28.06 2.81 28.95 2.81L28.95 2.81L28.95 2.81Q29.83 2.81 30.02 3.19L30.02 3.19L30.02 3.19Q30.13 3.40 30.15 3.56L30.15 3.56L30.15 3.56Q30.17 3.72 30.17 4.05L30.17 4.05L30.17 4.05Q30.17 4.37 30.15 4.53L30.15 4.53L30.15 4.53Q30.13 4.69 30.02 4.89ZM34.69 6.36L35.60 6.27L35.60 6.27Q36.57 6.27 36.74 6.80L36.74 6.80L36.74 6.80Q36.82 7.07 36.82 7.50L36.82 7.50L36.82 7.50Q36.82 7.94 36.73 8.20L36.73 8.20L36.73 8.20Q36.64 8.46 36.44 8.57L36.44 8.57L36.44 8.57Q36.15 8.74 35.59 8.74L35.59 8.74L34.69 8.68L34.69 12.43L34.69 12.43Q34.69 12.96 34.56 13.22L34.56 13.22L34.56 13.22Q34.43 13.48 34.15 13.57L34.15 13.57L34.15 13.57Q33.88 13.65 33.45 13.65L33.45 13.65L33.45 13.65Q33.01 13.65 32.75 13.56L32.75 13.56L32.75 13.56Q32.49 13.47 32.38 13.27L32.38 13.27L32.38 13.27Q32.27 13.06 32.25 12.89L32.25 12.89L32.25 12.89Q32.23 12.73 32.23 12.40L32.23 12.40L32.23 8.69L31.72 8.69L31.72 8.69Q31.36 8.67 31.21 8.53L31.21 8.53L31.21 8.53Q30.94 8.26 30.94 7.50L30.94 7.50L30.94 7.50Q30.94 6.36 31.77 6.36L31.77 6.36L32.23 6.36L32.23 5.61L32.23 5.61Q32.23 4.54 33.00 3.66L33.00 3.66L33.00 3.66Q33.77 2.79 35.22 2.79L35.22 2.79L35.22 2.79Q35.55 2.79 35.71 2.81L35.71 2.81L35.71 2.81Q35.87 2.83 36.08 2.94L36.08 2.94L36.08 2.94Q36.46 3.12 36.46 4.02L36.46 4.02L36.46 4.02Q36.46 4.69 36.22 4.98L36.22 4.98L36.22 4.98Q36.02 5.21 35.60 5.24L35.60 5.24L35.60 5.24Q35.48 5.24 35.21 5.24L35.21 5.24L35.21 5.24Q34.69 5.24 34.69 5.59L34.69 5.59L34.69 6.36ZM44.45 6.34L44.45 6.34L44.45 6.34Q45.28 6.71 45.28 7.22L45.28 7.22L45.28 7.22Q45.28 7.48 45.16 7.70L45.16 7.70L45.16 7.70Q45.05 7.92 45.05 7.94L45.05 7.94L41.38 16.14L41.38 16.14Q41.27 16.41 41.20 16.55L41.20 16.55L41.20 16.55Q41.12 16.69 40.95 16.81L40.95 16.81L40.95 16.81Q40.78 16.94 40.53 16.94L40.53 16.94L40.53 16.94Q40.28 16.94 39.79 16.73L39.79 16.73L39.79 16.73Q38.96 16.37 38.96 15.86L38.96 15.86L38.96 15.86Q38.96 15.53 40.31 12.66L40.31 12.66L37.52 7.97L37.52 7.97Q37.24 7.50 37.24 7.28L37.24 7.28L37.24 7.28Q37.24 6.83 38.00 6.38L38.00 6.38L38.00 6.38Q38.47 6.10 38.74 6.10L38.74 6.10L38.74 6.10Q39.00 6.10 39.17 6.22L39.17 6.22L39.17 6.22Q39.34 6.33 39.42 6.45L39.42 6.45L39.42 6.45Q39.49 6.57 40.19 7.75L40.19 7.75L40.19 7.75Q40.88 8.93 41.51 9.95L41.51 9.95L41.51 9.95Q41.58 9.73 42.27 8.23L42.27 8.23L42.27 8.23Q42.95 6.72 43.00 6.62L43.00 6.62L43.00 6.62Q43.05 6.52 43.16 6.38L43.16 6.38L43.16 6.38Q43.34 6.15 43.67 6.15L43.67 6.15L43.67 6.15Q44.00 6.15 44.45 6.34Z"></path></g><defs data-v-fde0c5aa=""><linearGradient data-v-fde0c5aa="" gradientTransform="rotate(25)" id="493e5008-579e-4bda-a756-57a7d9c97800" x1="0%" y1="0%" x2="100%" y2="0%"><stop data-v-fde0c5aa="" offset="0%" stop-color="#0D2175" stop-opacity="1"></stop><stop data-v-fde0c5aa="" offset="100%" stop-color="#1F1EFB" stop-opacity="1"></stop></linearGradient></defs><g data-v-fde0c5aa="" id="096df607-cd5a-4660-adfe-da321b2eabf9" stroke="none" fill="url(#493e5008-579e-4bda-a756-57a7d9c97800)" transform="matrix(2.171485162961616,0,0,2.171485162961616,40,115.25623765147535)"><path d="M17.572 23.933l4.106 7.095L32 13.189h-8.981V7.582L11.51.972 0 7.582v13.222l11.51 6.611 6.062-3.482zm10.96-8.744l-6.855 11.846-6.855-11.846h13.71z"></path></g><!----></svg>
